HIERARCHY
ROOT hip
{
	OFFSET 0.000000 0.000000 0.000000 
	CHANNELS 6 Xposition Yposition Zposition Xrotation Zrotation Yrotation
	JOINT abdomen
	{
		OFFSET 0.000000 3.402643 0.000000 
		CHANNELS 3 Xrotation Zrotation Yrotation
		JOINT chest
		{
			OFFSET 0.000000 8.438565 -0.680529 
			CHANNELS 3 Xrotation Zrotation Yrotation
			JOINT neck
			{
				OFFSET 0.000000 10.207942 -0.272212 
				CHANNELS 3 Xrotation Zrotation Yrotation
				JOINT head
				{
					OFFSET 0.000000 3.130431 0.000000 
					CHANNELS 3 Xrotation Zrotation Yrotation
					End Site
					{
						OFFSET 0.000000 3.130435 0.000000 
					}
				}
			}
			JOINT lCollar
			{
				OFFSET 3.470700 6.669187 -0.816635 
				CHANNELS 3 Yrotation Zrotation Xrotation
				JOINT lShldr
				{
					OFFSET 3.198488 0.000000 0.000000 
					CHANNELS 3 Zrotation Yrotation Xrotation
					JOINT lForeArm
					{
						OFFSET 10.139888 0.000000 0.000000 
						CHANNELS 3 Yrotation Zrotation Xrotation
						JOINT lHand
						{
							OFFSET 8.370511 0.000000 0.000000 
							CHANNELS 3 Zrotation Yrotation Xrotation
							End Site
							{
								OFFSET 4.083176 0.000000 0.000000 
							}
						}
					}
				}
			}
			JOINT rCollar
			{
				OFFSET -3.470700 6.669187 -0.816635 
				CHANNELS 3 Yrotation Zrotation Xrotation
				JOINT rShldr
				{
					OFFSET -3.198488 0.000000 0.000000 
					CHANNELS 3 Zrotation Yrotation Xrotation
					JOINT rForeArm
					{
						OFFSET -10.139888 0.000000 0.000000 
						CHANNELS 3 Yrotation Zrotation Xrotation
						JOINT rHand
						{
							OFFSET -8.370511 0.000000 0.000000 
							CHANNELS 3 Zrotation Yrotation Xrotation
							End Site
							{
								OFFSET -4.083176 0.000000 0.000000 
							}
						}
					}
				}
			}
		}
	}
	JOINT lThigh
	{
		OFFSET 5.308129 -1.633274 1.361059 
		CHANNELS 3 Xrotation Zrotation Yrotation
		JOINT lShin
		{
			OFFSET -2.041588 -20.007561 0.000000 
			CHANNELS 3 Xrotation Zrotation Yrotation
			JOINT lFoot
			{
				OFFSET 0.000000 -19.190928 -1.224953 
				CHANNELS 3 Xrotation Yrotation Zrotation
				End Site
				{
					OFFSET 0.000000 -2.449906 4.627600 
				}
			}
		}
	}
	JOINT rThigh
	{
		OFFSET -5.308129 -1.633274 1.361059 
		CHANNELS 3 Xrotation Zrotation Yrotation
		JOINT rShin
		{
			OFFSET 2.041588 -20.007561 0.000000 
			CHANNELS 3 Xrotation Zrotation Yrotation
			JOINT rFoot
			{
				OFFSET 0.000000 -19.190928 -1.224953 
				CHANNELS 3 Xrotation Yrotation Zrotation
				End Site
				{
					OFFSET 0.000000 -2.449906 4.627600 
				}
			}
		}
	}
}
MOTION
Frames: 15
Frame Time: 0.011111
-79.210686 50.478870 -4.571481 -0.493686 -3.803126 86.729034 11.564204 -3.462986 -9.996172 -16.989922 7.275239 -2.001798 3.703841 -14.017174 -13.546002 0.951090 15.467011 -27.180861 2.785591 -10.422155 1.651026 -71.969025 -37.521381 3.176894 -35.320763 2.923595 2.826130 8.524705 12.647240 -67.708382 2.149531 12.114442 0.054873 62.681576 26.866753 9.846263 37.679775 -3.878764 3.600900 -8.534408 -12.637552 26.185406 -5.483522 9.289406 -0.432788 28.632168 -5.411319 -4.682992 -31.075254 5.802557 1.639480 -1.366233 -12.887411 0.546019 17.735590 5.833655 3.211229 -22.097551 -6.648968 0.079030 
-79.212723 50.474792 -4.595273 -0.518099 -3.794881 86.546928 11.587502 -3.403812 -9.876854 -17.029396 7.252574 -1.968620 3.743764 -14.066147 -13.556651 0.875389 15.540548 -27.195070 2.785591 -10.422155 1.651026 -71.948761 -37.512093 3.283930 -35.310719 2.916181 2.819710 8.524705 12.647240 -67.600967 2.149531 12.114442 0.054873 62.691235 26.867245 9.670314 37.689941 -3.885761 3.607807 -8.534408 -12.637552 26.048685 -5.456612 9.283565 -0.442086 28.671799 -5.410333 -4.695863 -31.133181 5.936581 1.718966 -1.444808 -12.899421 0.558431 17.728951 5.824967 3.179917 -22.076429 -6.394305 0.171009 
-79.207291 50.469357 -4.618046 -0.655778 -3.819897 86.311371 11.585468 -3.268241 -9.640462 -17.098982 7.159806 -1.922648 3.899808 -14.007979 -13.592911 0.710505 15.600558 -27.257921 2.785591 -10.422155 1.651026 -71.914467 -37.395676 3.517722 -35.300961 2.916734 2.818928 8.524705 12.647240 -67.454475 2.149531 12.114442 0.054873 62.726410 26.771219 9.801160 37.740185 -3.904674 3.620703 -8.534408 -12.637552 26.234232 -5.444454 9.406601 -0.361821 28.673431 -5.400711 -4.694531 -31.274879 6.027704 1.818970 -1.532434 -12.789923 0.686133 17.797466 5.834991 3.197181 -22.128139 -6.252201 0.211422 
-79.193687 50.463577 -4.640818 -0.638399 -3.820794 86.049744 11.555144 -3.300688 -9.497898 -17.119043 7.108642 -1.888227 3.946170 -13.949338 -13.569101 0.645226 15.624047 -27.220312 2.785591 -10.422155 1.651026 -71.900444 -37.288544 3.638562 -35.300961 2.916734 2.818928 8.524705 12.647240 -67.337288 2.149531 12.114442 0.054873 62.748825 26.723454 9.986367 37.780437 -3.924885 3.642424 -8.534408 -12.637552 26.458843 -5.366676 9.358302 -0.223961 28.675220 -5.386324 -4.710567 -31.350052 6.112714 1.875784 -1.649040 -12.843114 0.806928 17.889343 5.836018 3.214956 -22.185625 -6.028037 0.268442 
-79.178055 50.454399 -4.657473 -0.174686 -3.873628 85.766739 11.454381 -3.890789 -9.557420 -17.058552 7.265768 -1.854365 3.799186 -14.055705 -13.508699 0.871218 15.682852 -27.075451 2.785591 -10.422155 1.651026 -71.947197 -37.209259 3.795796 -35.370678 2.944121 2.837236 8.524705 12.647240 -67.132217 2.149531 12.114442 0.054873 62.708351 26.750738 9.987041 37.790195 -3.924145 3.643380 -8.534408 -12.637552 26.449078 -5.280740 8.843802 -0.123019 28.683048 -5.400722 -4.705113 -31.336813 6.253604 1.943373 -1.951751 -13.391521 0.912665 17.933548 5.825090 3.227606 -22.294775 -5.790407 0.342871 
-79.172272 50.453377 -4.664611 0.030293 -4.032002 85.446571 11.278174 -4.196504 -9.499315 -17.037527 7.401189 -1.806619 3.768827 -13.994592 -13.496745 0.939774 15.547082 -27.084278 2.785591 -10.422155 1.651026 -71.984749 -37.149742 4.030953 -35.450459 2.978840 2.862571 8.524705 12.647240 -66.907600 2.149531 12.114442 0.054873 62.669739 26.748775 9.909591 37.820526 -3.936760 3.648453 -8.534408 -12.637552 26.380716 -5.338733 8.648013 0.099660 28.672277 -5.405624 -4.705379 -31.272295 6.283820 1.949811 -2.343498 -13.622025 1.256507 18.015413 5.826006 3.234756 -22.377134 -5.773533 0.325629 
-79.179077 50.454399 -4.713554 -0.115475 -4.027995 85.467987 11.397380 -3.882014 -9.511096 -17.137239 7.262374 -1.844732 3.768105 -14.045206 -13.470660 0.954436 15.658917 -27.002396 2.785591 -10.422155 1.651026 -72.006485 -37.198067 3.943453 -35.410297 2.957807 2.852189 8.524705 12.647240 -67.015030 2.149531 12.114442 0.054873 62.689049 26.749756 9.753003 37.860382 -3.949211 3.664248 -8.534408 -12.637552 26.302593 -5.365612 8.741842 0.031829 28.655352 -5.386246 -4.708803 -31.234810 6.279291 1.920226 -2.391601 -13.511713 1.352494 18.131145 5.815829 3.253637 -22.354944 -5.880902 0.282049 
-79.177032 50.444881 -4.739385 0.189571 -4.054777 85.322044 11.404394 -4.225944 -9.628521 -17.136356 7.360361 -1.850186 3.561324 -14.097099 -13.395129 1.259198 15.604571 -26.854124 2.785591 -10.422155 1.651026 -72.076454 -37.206150 3.729979 -35.420341 2.965204 2.858630 8.524705 12.647240 -67.171280 2.149531 12.114442 0.054873 62.680954 26.876505 9.494703 37.800602 -3.930528 3.640564 -8.534408 -12.637552 26.058455 -5.338296 8.383565 0.095353 28.671795 -5.410352 -4.695868 -31.287880 6.418174 2.038020 -2.605692 -13.880817 1.357778 18.192425 5.816700 3.259027 -22.292511 -5.901174 0.307482 
-79.192665 50.435364 -4.787309 0.656429 -4.153106 85.349701 11.372557 -4.666292 -9.897266 -17.175062 7.438836 -1.890828 3.286940 -14.074988 -13.341169 1.604863 15.378555 -26.758869 2.785591 -10.422155 1.651026 -72.106247 -36.941643 4.379193 -35.659485 3.061004 2.927935 8.524705 12.647240 -66.526749 2.149531 12.114442 0.054873 62.642643 27.021280 9.266182 37.700100 -3.892756 3.614716 -8.534408 -12.637552 25.911966 -5.457886 7.850362 0.166148 28.723623 -5.395965 -4.707483 -31.152889 6.467302 2.006542 -2.917541 -14.443760 1.303115 18.202354 5.816771 3.269641 -22.411127 -5.751965 0.326461 
-79.220879 50.439102 -4.805323 0.709580 -4.255466 84.878944 11.380422 -4.792154 -9.590019 -17.243832 7.432465 -1.802107 3.159457 -14.017089 -13.323504 1.545537 15.356626 -26.750437 2.785591 -10.422155 1.651026 -72.012817 -36.572632 5.778047 -35.928993 3.178003 3.018256 8.524705 12.647240 -65.315811 2.149531 12.114442 0.054873 62.675003 27.120739 8.880209 37.659859 -3.872494 3.593049 -8.534408 -12.637552 25.706888 -5.563184 7.837303 0.578787 28.812904 -5.400890 -4.697104 -31.092142 6.419680 1.966048 -3.240997 -14.517273 1.851837 18.192703 5.816774 3.249310 -22.444056 -5.528759 0.395914 
-79.220535 50.434006 -4.836252 0.540707 -4.164609 84.724236 11.575766 -4.584646 -9.504850 -17.274469 7.303893 -1.791675 3.334916 -13.935436 -13.362176 1.173871 15.453960 -26.851589 2.785591 -10.422155 1.651026 -71.916115 -36.379555 6.541955 -36.028427 3.210907 3.045458 8.524705 12.647240 -64.778694 2.149531 12.114442 0.054873 62.768379 27.174393 8.712523 37.700100 -3.892756 3.614716 -8.534408 -12.637552 25.589701 -5.542912 8.001870 0.728445 29.002483 -5.396564 -4.712708 -31.220181 6.304657 1.937305 -3.075307 -14.361943 2.243592 18.015411 5.826016 3.234757 -22.262873 -5.749701 0.358454 
-79.208649 50.427208 -4.874661 0.156621 -4.025689 84.492516 11.818339 -4.071533 -9.412787 -17.315372 7.127441 -1.814823 3.348362 -13.808499 -13.278175 1.056084 15.392052 -26.710552 2.785591 -10.422155 1.651026 -71.883247 -36.565975 5.896618 -35.808880 3.123003 2.981631 8.524705 12.647240 -65.403702 2.149531 12.114442 0.054873 62.813877 27.069111 9.624496 37.951168 -3.987516 3.690028 -8.534408 -12.637552 26.449078 -5.466987 8.375782 0.901500 29.204229 -5.376554 -4.735944 -31.399223 6.293334 1.977975 -2.761795 -13.978796 2.557932 17.749527 5.822063 3.210447 -22.038334 -5.878501 0.358535 
-79.198105 50.426189 -4.909668 -0.279394 -4.008531 84.088142 11.900718 -3.534054 -9.056297 -17.375229 7.015913 -1.767828 3.337174 -13.822252 -13.247820 1.241864 15.265066 -26.628435 2.785591 -10.422155 1.651026 -72.005005 -37.159016 3.894629 -35.201412 2.874971 2.787113 8.524705 12.647240 -67.464241 2.149531 12.114442 0.054873 62.711777 26.848726 10.705132 38.282612 -4.113542 3.804314 -8.534408 -12.637552 27.679544 -5.477214 8.854855 1.341597 29.372389 -5.376971 -4.770308 -31.617056 6.220170 2.009637 -2.636292 -13.544378 2.825173 17.550018 5.836701 3.175456 -21.926510 -5.789071 0.397172 
-79.179405 50.415649 -4.977986 -0.215087 -3.946456 84.178871 12.031898 -3.486936 -9.101136 -17.327723 6.822671 -1.779578 3.026087 -13.668631 -13.249821 1.544643 15.058160 -26.670906 2.785591 -10.422155 1.651026 -71.896828 -36.663345 5.433884 -35.669548 3.068360 2.934427 8.524705 12.647240 -66.057999 2.149531 12.114442 0.054873 62.750061 27.007175 10.738941 38.343136 -4.138912 3.824679 -8.534408 -12.637552 28.040874 -5.425026 8.703297 1.447133 29.433849 -5.361663 -4.792074 -31.782568 6.042945 1.971739 -2.516703 -13.691192 2.636438 17.479092 5.833116 3.167826 -21.980494 -5.768324 0.396245 
-79.165817 50.408176 -5.035087 0.256705 -3.971089 84.059517 12.026166 -4.006582 -9.122498 -17.249788 6.736050 -1.744725 2.918953 -13.516672 -13.261612 1.421678 15.076686 -26.733208 2.785591 -10.422155 1.651026 -71.773926 -36.568596 6.060461 -35.789051 3.116258 2.974293 8.524705 12.647240 -65.638069 2.149531 12.114442 0.054873 62.909389 27.240261 10.014156 38.262672 -4.107430 3.796302 -8.534408 -12.637552 27.630716 -5.340114 8.121964 1.418541 29.431982 -5.376992 -4.775558 -31.845217 6.147259 2.030281 -2.752371 -14.282751 2.753591 17.519861 5.833480 3.182108 -22.061262 -5.713132 0.402838 
